<mxfile host="app.diagrams.net" modified="2023-09-26T17:16:21.953Z" agent="Mozilla/5.0 (Windows NT 10.0; Win64; x64) AppleWebKit/537.36 (KHTML, like Gecko) Chrome/114.0.0.0 YaBrowser/23.7.5.734 Yowser/2.5 Safari/537.36" etag="X1MyRaC0SMgwHevd5OhQ" version="21.7.5" type="device">
  <diagram id="R2lEEEUBdFMjLlhIrx00" name="Page-1">
    <mxGraphModel dx="1457" dy="348" grid="1" gridSize="10" guides="1" tooltips="1" connect="1" arrows="1" fold="1" page="1" pageScale="1" pageWidth="850" pageHeight="1100" math="0" shadow="0" extFonts="Permanent Marker^https://fonts.googleapis.com/css?family=Permanent+Marker">
      <root>
        <mxCell id="0" />
        <mxCell id="1" parent="0" />
        <mxCell id="nrqa1FXBkWVdk2U6ALfu-1" value="Message" style="swimlane;childLayout=stackLayout;horizontal=1;startSize=50;horizontalStack=0;rounded=1;fontSize=14;fontStyle=0;strokeWidth=2;resizeParent=0;resizeLast=1;shadow=0;dashed=0;align=center;arcSize=4;whiteSpace=wrap;html=1;" parent="1" vertex="1">
          <mxGeometry x="-70" y="405" width="160" height="110" as="geometry">
            <mxRectangle x="265" y="140" width="100" height="50" as="alternateBounds" />
          </mxGeometry>
        </mxCell>
        <mxCell id="nrqa1FXBkWVdk2U6ALfu-2" value="+ content: varchar&lt;br&gt;+ datetime: datetime&lt;br&gt;+ sender: varchar" style="align=left;strokeColor=none;fillColor=none;spacingLeft=4;fontSize=12;verticalAlign=top;resizable=0;rotatable=0;part=1;html=1;" parent="nrqa1FXBkWVdk2U6ALfu-1" vertex="1">
          <mxGeometry y="50" width="160" height="60" as="geometry" />
        </mxCell>
        <mxCell id="nrqa1FXBkWVdk2U6ALfu-3" value="Chat" style="swimlane;childLayout=stackLayout;horizontal=1;startSize=50;horizontalStack=0;rounded=1;fontSize=14;fontStyle=0;strokeWidth=2;resizeParent=0;resizeLast=1;shadow=0;dashed=0;align=center;arcSize=4;whiteSpace=wrap;html=1;" parent="1" vertex="1">
          <mxGeometry x="200" y="290" width="160" height="90" as="geometry" />
        </mxCell>
        <mxCell id="nrqa1FXBkWVdk2U6ALfu-78" value="+ name: varchar&lt;br&gt;&lt;div style=&quot;&quot;&gt;&lt;span style=&quot;background-color: initial;&quot;&gt;+ image: varchar&lt;/span&gt;&lt;/div&gt;" style="text;html=1;align=left;verticalAlign=middle;resizable=0;points=[];autosize=1;strokeColor=none;fillColor=none;" parent="nrqa1FXBkWVdk2U6ALfu-3" vertex="1">
          <mxGeometry y="50" width="160" height="40" as="geometry" />
        </mxCell>
        <mxCell id="nrqa1FXBkWVdk2U6ALfu-5" value="Meeting" style="swimlane;childLayout=stackLayout;horizontal=1;startSize=50;horizontalStack=0;rounded=1;fontSize=14;fontStyle=0;strokeWidth=2;resizeParent=0;resizeLast=1;shadow=0;dashed=0;align=center;arcSize=4;whiteSpace=wrap;html=1;" parent="1" vertex="1">
          <mxGeometry x="10" y="660" width="160" height="110" as="geometry" />
        </mxCell>
        <mxCell id="nrqa1FXBkWVdk2U6ALfu-6" value="+ name: varchar&lt;br&gt;+ datetime: datetime&lt;br&gt;+ active: boolean" style="align=left;strokeColor=none;fillColor=none;spacingLeft=4;fontSize=12;verticalAlign=top;resizable=0;rotatable=0;part=1;html=1;" parent="nrqa1FXBkWVdk2U6ALfu-5" vertex="1">
          <mxGeometry y="50" width="160" height="60" as="geometry" />
        </mxCell>
        <mxCell id="nrqa1FXBkWVdk2U6ALfu-76" style="edgeStyle=orthogonalEdgeStyle;rounded=0;orthogonalLoop=1;jettySize=auto;html=1;exitX=0.5;exitY=1;exitDx=0;exitDy=0;" parent="nrqa1FXBkWVdk2U6ALfu-5" source="nrqa1FXBkWVdk2U6ALfu-6" target="nrqa1FXBkWVdk2U6ALfu-6" edge="1">
          <mxGeometry relative="1" as="geometry" />
        </mxCell>
        <mxCell id="nrqa1FXBkWVdk2U6ALfu-7" value="Location" style="swimlane;childLayout=stackLayout;horizontal=1;startSize=50;horizontalStack=0;rounded=1;fontSize=14;fontStyle=0;strokeWidth=2;resizeParent=0;resizeLast=1;shadow=0;dashed=0;align=center;arcSize=4;whiteSpace=wrap;html=1;" parent="1" vertex="1">
          <mxGeometry x="220" y="470" width="160" height="110" as="geometry" />
        </mxCell>
        <mxCell id="nrqa1FXBkWVdk2U6ALfu-8" value="+ country: varchar&lt;br&gt;+ city: varchar&lt;br&gt;+ address: varchar" style="align=left;strokeColor=none;fillColor=none;spacingLeft=4;fontSize=12;verticalAlign=top;resizable=0;rotatable=0;part=1;html=1;" parent="nrqa1FXBkWVdk2U6ALfu-7" vertex="1">
          <mxGeometry y="50" width="160" height="60" as="geometry" />
        </mxCell>
        <mxCell id="nrqa1FXBkWVdk2U6ALfu-9" value="Role" style="swimlane;childLayout=stackLayout;horizontal=1;startSize=50;horizontalStack=0;rounded=1;fontSize=14;fontStyle=0;strokeWidth=2;resizeParent=0;resizeLast=1;shadow=0;dashed=0;align=center;arcSize=4;whiteSpace=wrap;html=1;" parent="1" vertex="1">
          <mxGeometry x="750" y="90" width="160" height="80" as="geometry" />
        </mxCell>
        <mxCell id="nrqa1FXBkWVdk2U6ALfu-10" value="+ name: varchar" style="align=left;strokeColor=none;fillColor=none;spacingLeft=4;fontSize=12;verticalAlign=top;resizable=0;rotatable=0;part=1;html=1;" parent="nrqa1FXBkWVdk2U6ALfu-9" vertex="1">
          <mxGeometry y="50" width="160" height="30" as="geometry" />
        </mxCell>
        <mxCell id="nrqa1FXBkWVdk2U6ALfu-11" value="User" style="swimlane;childLayout=stackLayout;horizontal=1;startSize=50;horizontalStack=0;rounded=1;fontSize=14;fontStyle=0;strokeWidth=2;resizeParent=0;resizeLast=1;shadow=0;dashed=0;align=center;arcSize=4;whiteSpace=wrap;html=1;" parent="1" vertex="1">
          <mxGeometry x="750" y="200" width="160" height="110" as="geometry" />
        </mxCell>
        <mxCell id="nrqa1FXBkWVdk2U6ALfu-12" value="+ username: varchar&lt;br&gt;+ email: varchar&lt;br&gt;+ password: varchar" style="align=left;strokeColor=none;fillColor=none;spacingLeft=4;fontSize=12;verticalAlign=top;resizable=0;rotatable=0;part=1;html=1;" parent="nrqa1FXBkWVdk2U6ALfu-11" vertex="1">
          <mxGeometry y="50" width="160" height="60" as="geometry" />
        </mxCell>
        <mxCell id="nrqa1FXBkWVdk2U6ALfu-17" value="Action" style="swimlane;childLayout=stackLayout;horizontal=1;startSize=50;horizontalStack=0;rounded=1;fontSize=14;fontStyle=0;strokeWidth=2;resizeParent=0;resizeLast=1;shadow=0;dashed=0;align=center;arcSize=4;whiteSpace=wrap;html=1;" parent="1" vertex="1">
          <mxGeometry x="930" y="550" width="160" height="90" as="geometry" />
        </mxCell>
        <mxCell id="nrqa1FXBkWVdk2U6ALfu-18" value="+ name: varchar&lt;br&gt;+ datetime: datetime" style="align=left;strokeColor=none;fillColor=none;spacingLeft=4;fontSize=12;verticalAlign=top;resizable=0;rotatable=0;part=1;html=1;" parent="nrqa1FXBkWVdk2U6ALfu-17" vertex="1">
          <mxGeometry y="50" width="160" height="40" as="geometry" />
        </mxCell>
        <mxCell id="nrqa1FXBkWVdk2U6ALfu-61" style="edgeStyle=orthogonalEdgeStyle;rounded=0;orthogonalLoop=1;jettySize=auto;html=1;exitX=0.5;exitY=1;exitDx=0;exitDy=0;" parent="nrqa1FXBkWVdk2U6ALfu-17" source="nrqa1FXBkWVdk2U6ALfu-18" target="nrqa1FXBkWVdk2U6ALfu-18" edge="1">
          <mxGeometry relative="1" as="geometry" />
        </mxCell>
        <mxCell id="nrqa1FXBkWVdk2U6ALfu-19" value="Client" style="swimlane;childLayout=stackLayout;horizontal=1;startSize=50;horizontalStack=0;rounded=1;fontSize=14;fontStyle=0;strokeWidth=2;resizeParent=0;resizeLast=1;shadow=0;dashed=0;align=center;arcSize=4;whiteSpace=wrap;html=1;" parent="1" vertex="1">
          <mxGeometry x="510" y="400" width="160" height="140" as="geometry" />
        </mxCell>
        <mxCell id="nrqa1FXBkWVdk2U6ALfu-20" value="+ first_name: varchar&lt;br&gt;+ last_name: varchar&lt;br&gt;+ age: tinyint&lt;br&gt;+ photo: varchar&lt;br&gt;+ banned: boolean" style="align=left;strokeColor=none;fillColor=none;spacingLeft=4;fontSize=12;verticalAlign=top;resizable=0;rotatable=0;part=1;html=1;" parent="nrqa1FXBkWVdk2U6ALfu-19" vertex="1">
          <mxGeometry y="50" width="160" height="90" as="geometry" />
        </mxCell>
        <mxCell id="nrqa1FXBkWVdk2U6ALfu-28" value="Complaint" style="swimlane;childLayout=stackLayout;horizontal=1;startSize=50;horizontalStack=0;rounded=1;fontSize=14;fontStyle=0;strokeWidth=2;resizeParent=0;resizeLast=1;shadow=0;dashed=0;align=center;arcSize=4;whiteSpace=wrap;html=1;" parent="1" vertex="1">
          <mxGeometry x="930" y="420" width="160" height="80" as="geometry" />
        </mxCell>
        <mxCell id="nrqa1FXBkWVdk2U6ALfu-29" value="+ content: varchar" style="align=left;strokeColor=none;fillColor=none;spacingLeft=4;fontSize=12;verticalAlign=top;resizable=0;rotatable=0;part=1;html=1;" parent="nrqa1FXBkWVdk2U6ALfu-28" vertex="1">
          <mxGeometry y="50" width="160" height="30" as="geometry" />
        </mxCell>
        <mxCell id="nrqa1FXBkWVdk2U6ALfu-33" value="" style="edgeStyle=entityRelationEdgeStyle;fontSize=12;html=1;endArrow=ERoneToMany;startArrow=ERmandOne;rounded=0;exitX=1;exitY=0.5;exitDx=0;exitDy=0;entryX=1;entryY=0.25;entryDx=0;entryDy=0;" parent="1" source="nrqa1FXBkWVdk2U6ALfu-9" target="nrqa1FXBkWVdk2U6ALfu-11" edge="1">
          <mxGeometry width="100" height="100" relative="1" as="geometry">
            <mxPoint x="600" y="230" as="sourcePoint" />
            <mxPoint x="1060" y="170" as="targetPoint" />
          </mxGeometry>
        </mxCell>
        <mxCell id="nrqa1FXBkWVdk2U6ALfu-55" value="Contains" style="edgeLabel;html=1;align=center;verticalAlign=middle;resizable=0;points=[];" parent="nrqa1FXBkWVdk2U6ALfu-33" vertex="1" connectable="0">
          <mxGeometry x="-0.6413" relative="1" as="geometry">
            <mxPoint x="12" y="90" as="offset" />
          </mxGeometry>
        </mxCell>
        <mxCell id="nrqa1FXBkWVdk2U6ALfu-56" value="Included" style="edgeLabel;html=1;align=center;verticalAlign=middle;resizable=0;points=[];" parent="nrqa1FXBkWVdk2U6ALfu-33" vertex="1" connectable="0">
          <mxGeometry x="0.5526" y="2" relative="1" as="geometry">
            <mxPoint x="8" y="-92" as="offset" />
          </mxGeometry>
        </mxCell>
        <mxCell id="nrqa1FXBkWVdk2U6ALfu-68" value="" style="edgeStyle=entityRelationEdgeStyle;fontSize=12;html=1;endArrow=ERzeroToMany;startArrow=ERmandOne;rounded=0;exitX=0;exitY=0.75;exitDx=0;exitDy=0;entryX=1;entryY=0.25;entryDx=0;entryDy=0;" parent="1" source="nrqa1FXBkWVdk2U6ALfu-3" target="nrqa1FXBkWVdk2U6ALfu-2" edge="1">
          <mxGeometry width="100" height="100" relative="1" as="geometry">
            <mxPoint x="170" y="500" as="sourcePoint" />
            <mxPoint x="270" y="400" as="targetPoint" />
          </mxGeometry>
        </mxCell>
        <mxCell id="nrqa1FXBkWVdk2U6ALfu-69" value="Included" style="edgeLabel;html=1;align=center;verticalAlign=middle;resizable=0;points=[];" parent="nrqa1FXBkWVdk2U6ALfu-68" vertex="1" connectable="0">
          <mxGeometry x="0.6563" y="-1" relative="1" as="geometry">
            <mxPoint x="10" y="-14" as="offset" />
          </mxGeometry>
        </mxCell>
        <mxCell id="nrqa1FXBkWVdk2U6ALfu-70" value="Contains" style="edgeLabel;html=1;align=center;verticalAlign=middle;resizable=0;points=[];" parent="nrqa1FXBkWVdk2U6ALfu-68" vertex="1" connectable="0">
          <mxGeometry x="-0.6858" y="-1" relative="1" as="geometry">
            <mxPoint x="-11" y="20" as="offset" />
          </mxGeometry>
        </mxCell>
        <mxCell id="nrqa1FXBkWVdk2U6ALfu-71" value="" style="edgeStyle=entityRelationEdgeStyle;fontSize=12;html=1;endArrow=ERzeroToMany;startArrow=ERzeroToOne;rounded=0;entryX=0;entryY=0.25;entryDx=0;entryDy=0;exitX=1;exitY=0.25;exitDx=0;exitDy=0;" parent="1" source="nrqa1FXBkWVdk2U6ALfu-8" target="nrqa1FXBkWVdk2U6ALfu-20" edge="1">
          <mxGeometry width="100" height="100" relative="1" as="geometry">
            <mxPoint x="70" y="750" as="sourcePoint" />
            <mxPoint x="170" y="650" as="targetPoint" />
          </mxGeometry>
        </mxCell>
        <mxCell id="nrqa1FXBkWVdk2U6ALfu-72" value="Contains" style="edgeLabel;html=1;align=center;verticalAlign=middle;resizable=0;points=[];" parent="nrqa1FXBkWVdk2U6ALfu-71" vertex="1" connectable="0">
          <mxGeometry x="0.6521" y="1" relative="1" as="geometry">
            <mxPoint x="-11" y="16" as="offset" />
          </mxGeometry>
        </mxCell>
        <mxCell id="nrqa1FXBkWVdk2U6ALfu-73" value="" style="fontSize=12;html=1;endArrow=ERzeroToMany;startArrow=ERmandOne;rounded=0;exitX=0;exitY=0.25;exitDx=0;exitDy=0;edgeStyle=elbowEdgeStyle;entryX=1;entryY=0.25;entryDx=0;entryDy=0;" parent="1" source="nrqa1FXBkWVdk2U6ALfu-8" target="nrqa1FXBkWVdk2U6ALfu-5" edge="1">
          <mxGeometry width="100" height="100" relative="1" as="geometry">
            <mxPoint x="160" y="630" as="sourcePoint" />
            <mxPoint x="210" y="790" as="targetPoint" />
            <Array as="points">
              <mxPoint x="190" y="610" />
            </Array>
          </mxGeometry>
        </mxCell>
        <mxCell id="nrqa1FXBkWVdk2U6ALfu-74" value="Contains" style="edgeLabel;html=1;align=center;verticalAlign=middle;resizable=0;points=[];" parent="nrqa1FXBkWVdk2U6ALfu-73" vertex="1" connectable="0">
          <mxGeometry x="0.7255" y="-1" relative="1" as="geometry">
            <mxPoint x="-3" y="-16" as="offset" />
          </mxGeometry>
        </mxCell>
        <mxCell id="nrqa1FXBkWVdk2U6ALfu-75" value="Included" style="edgeLabel;html=1;align=center;verticalAlign=middle;resizable=0;points=[];" parent="nrqa1FXBkWVdk2U6ALfu-73" vertex="1" connectable="0">
          <mxGeometry x="-0.7037" y="-1" relative="1" as="geometry">
            <mxPoint y="15" as="offset" />
          </mxGeometry>
        </mxCell>
        <mxCell id="nrqa1FXBkWVdk2U6ALfu-80" value="Information" style="swimlane;childLayout=stackLayout;horizontal=1;startSize=50;horizontalStack=0;rounded=1;fontSize=14;fontStyle=0;strokeWidth=2;resizeParent=0;resizeLast=1;shadow=0;dashed=0;align=center;arcSize=4;whiteSpace=wrap;html=1;" parent="1" vertex="1">
          <mxGeometry x="760" y="670" width="160" height="120" as="geometry" />
        </mxCell>
        <mxCell id="nrqa1FXBkWVdk2U6ALfu-81" value="+ hobbies: varchar&lt;br&gt;+ occupation: varchar&lt;br&gt;+ other: varchar" style="align=left;strokeColor=none;fillColor=none;spacingLeft=4;fontSize=12;verticalAlign=top;resizable=0;rotatable=0;part=1;html=1;" parent="nrqa1FXBkWVdk2U6ALfu-80" vertex="1">
          <mxGeometry y="50" width="160" height="70" as="geometry" />
        </mxCell>
        <mxCell id="nrqa1FXBkWVdk2U6ALfu-82" style="edgeStyle=orthogonalEdgeStyle;rounded=0;orthogonalLoop=1;jettySize=auto;html=1;exitX=0.5;exitY=1;exitDx=0;exitDy=0;" parent="nrqa1FXBkWVdk2U6ALfu-80" source="nrqa1FXBkWVdk2U6ALfu-81" target="nrqa1FXBkWVdk2U6ALfu-81" edge="1">
          <mxGeometry relative="1" as="geometry" />
        </mxCell>
        <mxCell id="nrqa1FXBkWVdk2U6ALfu-83" value="" style="edgeStyle=orthogonalEdgeStyle;fontSize=12;html=1;endArrow=ERzeroToOne;startArrow=ERmandOne;rounded=0;entryX=0;entryY=0.25;entryDx=0;entryDy=0;exitX=1.01;exitY=0.649;exitDx=0;exitDy=0;exitPerimeter=0;" parent="1" edge="1" target="nrqa1FXBkWVdk2U6ALfu-80" source="nrqa1FXBkWVdk2U6ALfu-20">
          <mxGeometry width="100" height="100" relative="1" as="geometry">
            <mxPoint x="680" y="510" as="sourcePoint" />
            <mxPoint x="680" y="720" as="targetPoint" />
            <Array as="points">
              <mxPoint x="710" y="508" />
              <mxPoint x="710" y="700" />
            </Array>
          </mxGeometry>
        </mxCell>
        <mxCell id="nrqa1FXBkWVdk2U6ALfu-84" value="Contains" style="edgeLabel;html=1;align=center;verticalAlign=middle;resizable=0;points=[];" parent="nrqa1FXBkWVdk2U6ALfu-83" vertex="1" connectable="0">
          <mxGeometry x="-0.7854" y="-2" relative="1" as="geometry">
            <mxPoint x="10" y="8" as="offset" />
          </mxGeometry>
        </mxCell>
        <mxCell id="nrqa1FXBkWVdk2U6ALfu-85" value="Included" style="edgeLabel;html=1;align=center;verticalAlign=middle;resizable=0;points=[];" parent="nrqa1FXBkWVdk2U6ALfu-83" vertex="1" connectable="0">
          <mxGeometry x="0.7335" y="1" relative="1" as="geometry">
            <mxPoint y="-10" as="offset" />
          </mxGeometry>
        </mxCell>
        <mxCell id="F_KC9iYM57UXbXRnkltA-1" value="" style="edgeStyle=entityRelationEdgeStyle;fontSize=12;html=1;endArrow=ERzeroToOne;startArrow=ERmandOne;rounded=0;entryX=1;entryY=0.25;entryDx=0;entryDy=0;exitX=0;exitY=0.25;exitDx=0;exitDy=0;" parent="1" source="nrqa1FXBkWVdk2U6ALfu-12" target="nrqa1FXBkWVdk2U6ALfu-20" edge="1">
          <mxGeometry width="100" height="100" relative="1" as="geometry">
            <mxPoint x="620" y="360" as="sourcePoint" />
            <mxPoint x="720" y="260" as="targetPoint" />
          </mxGeometry>
        </mxCell>
        <mxCell id="F_KC9iYM57UXbXRnkltA-2" value="Contains" style="edgeLabel;html=1;align=center;verticalAlign=middle;resizable=0;points=[];" parent="F_KC9iYM57UXbXRnkltA-1" vertex="1" connectable="0">
          <mxGeometry x="0.6503" y="-2" relative="1" as="geometry">
            <mxPoint y="-1" as="offset" />
          </mxGeometry>
        </mxCell>
        <mxCell id="JNVwNPYprlm9ay51b37--1" value="" style="edgeStyle=entityRelationEdgeStyle;fontSize=12;html=1;endArrow=ERzeroToMany;startArrow=ERmandOne;rounded=0;exitX=1;exitY=0.5;exitDx=0;exitDy=0;entryX=0;entryY=0.25;entryDx=0;entryDy=0;" parent="1" source="nrqa1FXBkWVdk2U6ALfu-20" target="nrqa1FXBkWVdk2U6ALfu-17" edge="1">
          <mxGeometry width="100" height="100" relative="1" as="geometry">
            <mxPoint x="770" y="520" as="sourcePoint" />
            <mxPoint x="870" y="420" as="targetPoint" />
          </mxGeometry>
        </mxCell>
        <mxCell id="JNVwNPYprlm9ay51b37--5" value="Contains" style="edgeLabel;html=1;align=center;verticalAlign=middle;resizable=0;points=[];" parent="JNVwNPYprlm9ay51b37--1" vertex="1" connectable="0">
          <mxGeometry x="-0.3879" y="1" relative="1" as="geometry">
            <mxPoint x="-11" y="-14" as="offset" />
          </mxGeometry>
        </mxCell>
        <mxCell id="JNVwNPYprlm9ay51b37--6" value="Included" style="edgeLabel;html=1;align=center;verticalAlign=middle;resizable=0;points=[];" parent="JNVwNPYprlm9ay51b37--1" vertex="1" connectable="0">
          <mxGeometry x="0.4881" y="-1" relative="1" as="geometry">
            <mxPoint as="offset" />
          </mxGeometry>
        </mxCell>
        <mxCell id="JNVwNPYprlm9ay51b37--2" value="" style="edgeStyle=entityRelationEdgeStyle;fontSize=12;html=1;endArrow=ERzeroToMany;startArrow=ERmandOne;rounded=0;exitX=0.998;exitY=0.416;exitDx=0;exitDy=0;entryX=0;entryY=0.25;entryDx=0;entryDy=0;exitPerimeter=0;" parent="1" source="nrqa1FXBkWVdk2U6ALfu-20" target="nrqa1FXBkWVdk2U6ALfu-28" edge="1">
          <mxGeometry width="100" height="100" relative="1" as="geometry">
            <mxPoint x="740" y="462" as="sourcePoint" />
            <mxPoint x="1000" y="540" as="targetPoint" />
          </mxGeometry>
        </mxCell>
        <mxCell id="JNVwNPYprlm9ay51b37--3" value="Contains" style="edgeLabel;html=1;align=center;verticalAlign=middle;resizable=0;points=[];" parent="JNVwNPYprlm9ay51b37--2" vertex="1" connectable="0">
          <mxGeometry x="-0.5115" relative="1" as="geometry">
            <mxPoint as="offset" />
          </mxGeometry>
        </mxCell>
        <mxCell id="JNVwNPYprlm9ay51b37--4" value="Included" style="edgeLabel;html=1;align=center;verticalAlign=middle;resizable=0;points=[];" parent="JNVwNPYprlm9ay51b37--2" vertex="1" connectable="0">
          <mxGeometry x="0.5722" y="2" relative="1" as="geometry">
            <mxPoint as="offset" />
          </mxGeometry>
        </mxCell>
        <mxCell id="ECshMf0PM1uJW6hjx2aK-1" value="СlientMeeting&lt;br&gt;(Junction table)" style="swimlane;childLayout=stackLayout;horizontal=1;startSize=50;horizontalStack=0;rounded=1;fontSize=14;fontStyle=0;strokeWidth=2;resizeParent=0;resizeLast=1;shadow=0;dashed=0;align=center;arcSize=4;whiteSpace=wrap;html=1;" vertex="1" parent="1">
          <mxGeometry x="360" y="660" width="160" height="60" as="geometry" />
        </mxCell>
        <mxCell id="ECshMf0PM1uJW6hjx2aK-6" value="" style="edgeStyle=orthogonalEdgeStyle;fontSize=12;html=1;endArrow=ERoneToMany;startArrow=ERmandOne;rounded=0;entryX=0.5;entryY=1;entryDx=0;entryDy=0;exitX=1;exitY=0.5;exitDx=0;exitDy=0;curved=1;" edge="1" parent="1" source="ECshMf0PM1uJW6hjx2aK-1" target="nrqa1FXBkWVdk2U6ALfu-20">
          <mxGeometry width="100" height="100" relative="1" as="geometry">
            <mxPoint x="550" y="800" as="sourcePoint" />
            <mxPoint x="650" y="700" as="targetPoint" />
          </mxGeometry>
        </mxCell>
        <mxCell id="ECshMf0PM1uJW6hjx2aK-7" value="Contains" style="edgeLabel;html=1;align=center;verticalAlign=middle;resizable=0;points=[];" vertex="1" connectable="0" parent="ECshMf0PM1uJW6hjx2aK-6">
          <mxGeometry x="-0.7383" y="7" relative="1" as="geometry">
            <mxPoint x="11" y="-13" as="offset" />
          </mxGeometry>
        </mxCell>
        <mxCell id="ECshMf0PM1uJW6hjx2aK-8" value="Included" style="edgeLabel;html=1;align=center;verticalAlign=middle;resizable=0;points=[];" vertex="1" connectable="0" parent="ECshMf0PM1uJW6hjx2aK-6">
          <mxGeometry x="0.6329" y="3" relative="1" as="geometry">
            <mxPoint y="-10" as="offset" />
          </mxGeometry>
        </mxCell>
        <mxCell id="ECshMf0PM1uJW6hjx2aK-9" value="" style="edgeStyle=entityRelationEdgeStyle;fontSize=12;html=1;endArrow=ERzeroToMany;startArrow=ERmandOne;rounded=0;entryX=1;entryY=0.5;entryDx=0;entryDy=0;exitX=0;exitY=0.5;exitDx=0;exitDy=0;" edge="1" parent="1" source="ECshMf0PM1uJW6hjx2aK-1" target="nrqa1FXBkWVdk2U6ALfu-6">
          <mxGeometry width="100" height="100" relative="1" as="geometry">
            <mxPoint x="350" y="690" as="sourcePoint" />
            <mxPoint x="270" y="780" as="targetPoint" />
          </mxGeometry>
        </mxCell>
        <mxCell id="ECshMf0PM1uJW6hjx2aK-10" value="Contains" style="edgeLabel;html=1;align=center;verticalAlign=middle;resizable=0;points=[];" vertex="1" connectable="0" parent="ECshMf0PM1uJW6hjx2aK-9">
          <mxGeometry x="-0.6502" y="-1" relative="1" as="geometry">
            <mxPoint x="-5" as="offset" />
          </mxGeometry>
        </mxCell>
        <mxCell id="ECshMf0PM1uJW6hjx2aK-11" value="Included" style="edgeLabel;html=1;align=center;verticalAlign=middle;resizable=0;points=[];" vertex="1" connectable="0" parent="ECshMf0PM1uJW6hjx2aK-9">
          <mxGeometry x="0.6425" y="1" relative="1" as="geometry">
            <mxPoint x="4" as="offset" />
          </mxGeometry>
        </mxCell>
        <mxCell id="ECshMf0PM1uJW6hjx2aK-12" value="ClientChat&lt;br&gt;(Junction Table)" style="swimlane;childLayout=stackLayout;horizontal=1;startSize=50;horizontalStack=0;rounded=1;fontSize=14;fontStyle=0;strokeWidth=2;resizeParent=0;resizeLast=1;shadow=0;dashed=0;align=center;arcSize=4;whiteSpace=wrap;html=1;" vertex="1" parent="1">
          <mxGeometry x="425" y="225" width="160" height="60" as="geometry" />
        </mxCell>
        <mxCell id="ECshMf0PM1uJW6hjx2aK-14" value="" style="edgeStyle=orthogonalEdgeStyle;fontSize=12;html=1;endArrow=ERoneToMany;startArrow=ERmandOne;rounded=0;entryX=0.75;entryY=0;entryDx=0;entryDy=0;exitX=1;exitY=0.5;exitDx=0;exitDy=0;curved=1;" edge="1" parent="1" source="ECshMf0PM1uJW6hjx2aK-12" target="nrqa1FXBkWVdk2U6ALfu-19">
          <mxGeometry width="100" height="100" relative="1" as="geometry">
            <mxPoint x="590" y="379.52" as="sourcePoint" />
            <mxPoint x="660" y="229.51999999999998" as="targetPoint" />
          </mxGeometry>
        </mxCell>
        <mxCell id="ECshMf0PM1uJW6hjx2aK-15" value="Contains" style="edgeLabel;html=1;align=center;verticalAlign=middle;resizable=0;points=[];" vertex="1" connectable="0" parent="ECshMf0PM1uJW6hjx2aK-14">
          <mxGeometry x="-0.7383" y="7" relative="1" as="geometry">
            <mxPoint x="11" y="22" as="offset" />
          </mxGeometry>
        </mxCell>
        <mxCell id="ECshMf0PM1uJW6hjx2aK-16" value="Included" style="edgeLabel;html=1;align=center;verticalAlign=middle;resizable=0;points=[];" vertex="1" connectable="0" parent="ECshMf0PM1uJW6hjx2aK-14">
          <mxGeometry x="0.6329" y="3" relative="1" as="geometry">
            <mxPoint x="-3" y="5" as="offset" />
          </mxGeometry>
        </mxCell>
        <mxCell id="ECshMf0PM1uJW6hjx2aK-17" value="" style="edgeStyle=orthogonalEdgeStyle;fontSize=12;html=1;endArrow=ERzeroToMany;startArrow=ERmandOne;rounded=0;entryX=0.5;entryY=0;entryDx=0;entryDy=0;exitX=0;exitY=0.25;exitDx=0;exitDy=0;curved=1;" edge="1" parent="1" source="ECshMf0PM1uJW6hjx2aK-12" target="nrqa1FXBkWVdk2U6ALfu-3">
          <mxGeometry width="100" height="100" relative="1" as="geometry">
            <mxPoint x="470" y="390" as="sourcePoint" />
            <mxPoint x="280" y="440" as="targetPoint" />
          </mxGeometry>
        </mxCell>
        <mxCell id="ECshMf0PM1uJW6hjx2aK-18" value="Contains" style="edgeLabel;html=1;align=center;verticalAlign=middle;resizable=0;points=[];" vertex="1" connectable="0" parent="ECshMf0PM1uJW6hjx2aK-17">
          <mxGeometry x="-0.6502" y="-1" relative="1" as="geometry">
            <mxPoint x="-5" as="offset" />
          </mxGeometry>
        </mxCell>
        <mxCell id="ECshMf0PM1uJW6hjx2aK-19" value="Included" style="edgeLabel;html=1;align=center;verticalAlign=middle;resizable=0;points=[];" vertex="1" connectable="0" parent="ECshMf0PM1uJW6hjx2aK-17">
          <mxGeometry x="0.6425" y="1" relative="1" as="geometry">
            <mxPoint x="19" y="5" as="offset" />
          </mxGeometry>
        </mxCell>
      </root>
    </mxGraphModel>
  </diagram>
</mxfile>
